<?xml version="1.0" encoding="UTF-8" standalone="no"?>
<!DOCTYPE svg PUBLIC "-//W3C//DTD SVG 1.1//EN" "http://www.w3.org/Graphics/SVG/1.1/DTD/svg11.dtd">
<svg width="100%" height="100%" viewBox="0 0 475 62" version="1.1" xmlns="http://www.w3.org/2000/svg" xmlns:xlink="http://www.w3.org/1999/xlink" xml:space="preserve" xmlns:serif="http://www.serif.com/" style="fill-rule:evenodd;clip-rule:evenodd;stroke-linecap:round;stroke-linejoin:round;stroke-miterlimit:1.5;">
    <g transform="matrix(1,0,0,1,-87.553283,-506.61504)">
        <g transform="matrix(1.205976,0,0,1.205976,-40.807967,159.822258)">
            <g>
                <path d="M120.598,308.195L107.317,309.562L107.707,301.75L121.184,301.164L121.77,293.742L130.168,294.523L129.387,301.164L136.223,301.359L136.223,307.804L128.801,307.804L127.824,323.429C127.694,326.164 128.475,328.052 130.168,329.093C131.731,330.005 133.554,330.07 135.637,329.289C137.72,328.507 139.152,327.075 139.934,324.992C140.324,323.82 140.585,320.825 140.715,316.007L149.309,317.179C149.309,324.601 147.746,329.875 144.621,333C141.626,335.994 137.004,337.492 130.754,337.492C126.327,337.492 123.267,336.255 121.574,333.781C119.361,335.864 117.017,336.711 114.543,336.32C110.637,335.669 108.098,333.325 106.926,329.289C106.275,326.945 106.275,324.471 106.926,321.867C107.707,319.263 108.944,316.984 110.637,315.031C112.33,313.208 114.152,312.231 116.106,312.101C117.277,311.971 118.71,312.362 120.402,313.273L120.598,308.195ZM113.371,325.382C113.371,327.726 114.218,328.898 115.91,328.898C117.733,328.898 119.035,327.531 119.817,324.796C120.077,323.885 120.142,322.648 120.012,321.086C119.882,319.914 119.491,319.132 118.84,318.742C117.538,317.961 116.236,318.546 114.934,320.5C113.892,322.062 113.371,323.69 113.371,325.382ZM140.91,294.523C142.863,297.257 144.751,299.927 146.574,302.531C148.267,305.395 149.83,308.13 151.262,310.734L144.035,314.64C142.603,311.385 141.626,309.171 141.106,308C139.804,305.265 137.785,301.685 135.051,297.257L140.91,294.523Z" style="fill-rule:nonzero;"/>
                <path d="M210.246,308.195L196.965,309.562L197.356,301.75L210.832,301.164L211.418,293.742L219.817,294.523L219.035,301.164L225.871,301.359L225.871,307.804L218.449,307.804L217.473,323.429C217.343,326.164 218.124,328.052 219.817,329.093C221.379,330.005 223.202,330.07 225.285,329.289C227.369,328.507 228.801,327.075 229.582,324.992C229.973,323.82 230.233,320.825 230.363,316.007L238.957,317.179C238.957,324.601 237.395,329.875 234.27,333C231.275,335.994 226.652,337.492 220.402,337.492C215.975,337.492 212.916,336.255 211.223,333.781C209.009,335.864 206.666,336.711 204.192,336.32C200.285,335.669 197.746,333.325 196.574,329.289C195.923,326.945 195.923,324.471 196.574,321.867C197.356,319.263 198.593,316.984 200.285,315.031C201.978,313.208 203.801,312.231 205.754,312.101C206.926,311.971 208.358,312.362 210.051,313.273L210.246,308.195ZM203.02,325.382C203.02,327.726 203.866,328.898 205.559,328.898C207.382,328.898 208.684,327.531 209.465,324.796C209.725,323.885 209.791,322.648 209.66,321.086C209.53,319.914 209.139,319.132 208.488,318.742C207.186,317.961 205.884,318.546 204.582,320.5C203.541,322.062 203.02,323.69 203.02,325.382ZM230.559,294.523C232.512,297.257 234.4,299.927 236.223,302.531C237.916,305.395 239.478,308.13 240.91,310.734L233.684,314.64C232.251,311.385 231.275,309.171 230.754,308C229.452,305.265 227.434,301.685 224.699,297.257L230.559,294.523Z" style="fill-rule:nonzero;"/>
                <g transform="matrix(1,0,0,1,-6,0)">
                    <path d="M316.692,327.531L310.442,337.882L302.043,333.781C305.298,328.442 308.619,322.908 312.004,317.179C314.608,312.362 317.147,307.609 319.621,302.921L287.199,308.781L285.637,299.992L313.957,295.695C318.905,294.914 322.421,294.849 324.504,295.5C326.848,296.281 328.28,298.104 328.801,300.968C329.192,303.442 328.475,306.372 326.652,309.757L320.207,321.476" style="fill-rule:nonzero;"/>
                </g>
                <path d="M370.988,323.234C369.166,326.88 366.171,331.763 362.004,337.882L353.41,334.367C356.535,329.679 358.749,326.033 360.051,323.429C361.874,319.914 363.567,316.398 365.129,312.882C358.358,313.403 353.02,313.924 349.113,314.445C345.598,314.966 339.738,315.942 331.535,317.375L331.926,308.781C350.416,306.177 361.483,304.875 365.129,304.875C371.639,304.875 374.895,307.283 374.895,312.101C374.895,314.575 373.593,318.286 370.988,323.234ZM350.09,294.523C356.47,294.263 363.632,294.132 371.574,294.132L371.574,301.359C365.064,301.359 359.27,301.489 354.192,301.75C350.936,301.88 344.296,302.596 334.27,303.898L334.66,295.5C341.301,294.979 346.444,294.653 350.09,294.523Z" style="fill-rule:nonzero;"/>
                <path d="M398.723,301.75L385.149,305.265M415.324,308.39L417.473,312.296" style="fill-rule:nonzero;"/>
                <path d="M415.324,308.39L419.621,316.203L385.246,338.273L379.192,330.07" style="fill-rule:nonzero;"/>
                <path d="M379.192,330.07L415.324,308.39" style="fill-rule:nonzero;"/>
                <path d="M398.723,301.75L393.254,310.148" style="fill-rule:nonzero;"/>
                <path d="M430.559,296.476L435.246,312.296M435.637,295.89L445.012,294.718L447.551,309.562L439.543,311.515M455.949,295.304L464.348,299.211C461.613,305.33 458.814,311.645 455.949,318.156C453.215,324.666 450.611,330.981 448.137,337.101L438.762,332.609L455.949,295.304Z" style="fill-rule:nonzero;"/>
                <path d="M439.543,311.515L435.637,295.89" style="fill:none;fill-rule:nonzero;"/>
                <path d="M435.246,312.296L427.238,315.617L421.77,299.015L430.559,296.476" style="fill-rule:nonzero;"/>
                <path d="M485.051,331.632C484.139,330.721 483.684,329.549 483.684,328.117C483.684,326.815 484.205,325.643 485.246,324.601C486.158,323.69 487.264,323.234 488.567,323.234C489.869,323.234 491.041,323.755 492.082,324.796C492.994,325.708 493.449,326.88 493.449,328.312C493.449,329.614 492.929,330.786 491.887,331.828C490.975,332.739 489.869,333.195 488.567,333.195C487.264,333.195 486.093,332.674 485.051,331.632ZM489.738,292.765L499.895,294.523C498.983,297.908 497.876,302.27 496.574,307.609C495.663,311.255 494.621,316.203 493.449,322.453L485.637,321.086L489.738,292.765Z" style="fill-rule:nonzero;"/>
            </g>
            <g>
                <g transform="matrix(0.990844,0.135015,-0.153741,1.128271,71.576831,-130.898341)">
                    <ellipse cx="147.833" cy="364.042" rx="6.653" ry="4.166" style="fill:rgb(41,208,0);"/>
                </g>
                <g transform="matrix(0.994855,0.101313,-0.11711,1.149973,55.754552,-125.90612)">
                    <ellipse cx="147.833" cy="364.042" rx="6.653" ry="4.166" style="fill:rgb(41,208,0);"/>
                </g>
                <g transform="matrix(0.984447,0.175679,-0.215493,1.207551,91.329666,-148.859658)">
                    <ellipse cx="147.833" cy="364.042" rx="6.653" ry="4.166" style="fill:rgb(41,208,0);"/>
                </g>
                <g transform="matrix(0.999088,-0.042693,0.053368,1.248903,-8.588997,-122.840231)">
                    <ellipse cx="147.833" cy="364.042" rx="6.653" ry="4.166" style="fill:rgb(41,208,0);"/>
                </g>
                <g transform="matrix(0.942013,-0.456684,0.626074,1.291419,-204.882633,-70.937276)">
                    <ellipse cx="147.833" cy="364.042" rx="6.653" ry="4.166" style="fill:rgb(41,208,0);"/>
                </g>
                <g transform="matrix(0.942013,-0.456684,0.626074,1.291419,-195.201414,-70.937276)">
                    <ellipse cx="147.833" cy="364.042" rx="6.653" ry="4.166" style="fill:rgb(41,208,0);"/>
                </g>
                <g transform="matrix(0.831985,-0.635412,0.871095,1.140581,-258.149895,6.769847)">
                    <ellipse cx="147.833" cy="364.042" rx="6.653" ry="4.166" style="fill:rgb(41,208,0);"/>
                </g>
                <g transform="matrix(0.59067,-0.864324,1.184914,0.809759,-330.100218,152.131111)">
                    <ellipse cx="147.833" cy="364.042" rx="6.653" ry="4.166" style="fill:rgb(41,208,0);"/>
                </g>
                <g transform="matrix(1,0,0,1,-6.322815,-100.733264)">
                    <circle cx="164.737" cy="393.499" r="4.858" style="fill:white;stroke:black;stroke-width:0.69px;"/>
                </g>
                <g transform="matrix(0.5,0,0,0.5,76.474801,96.01599)">
                    <circle cx="164.737" cy="393.499" r="4.858" style="stroke:black;stroke-width:1.38px;"/>
                </g>
                <g transform="matrix(1,0,0,1,3.392813,-99.733264)">
                    <circle cx="164.737" cy="393.499" r="4.858" style="fill:white;stroke:black;stroke-width:0.69px;"/>
                </g>
                <g transform="matrix(0.5,0,0,0.5,85.332615,97.01599)">
                    <circle cx="164.737" cy="393.499" r="4.858" style="stroke:black;stroke-width:1.38px;"/>
                </g>
            </g>
            <g transform="matrix(1,0,0,1,89.106713,0)">
                <g transform="matrix(0.990844,0.135015,-0.153741,1.128271,71.576831,-130.898341)">
                    <ellipse cx="147.833" cy="364.042" rx="6.653" ry="4.166" style="fill:rgb(41,208,0);"/>
                </g>
                <g transform="matrix(0.994855,0.101313,-0.11711,1.149973,55.754552,-125.90612)">
                    <ellipse cx="147.833" cy="364.042" rx="6.653" ry="4.166" style="fill:rgb(41,208,0);"/>
                </g>
                <g transform="matrix(0.984447,0.175679,-0.215493,1.207551,91.329666,-148.859658)">
                    <ellipse cx="147.833" cy="364.042" rx="6.653" ry="4.166" style="fill:rgb(41,208,0);"/>
                </g>
                <g transform="matrix(0.999088,-0.042693,0.053368,1.248903,-8.588997,-122.840231)">
                    <ellipse cx="147.833" cy="364.042" rx="6.653" ry="4.166" style="fill:rgb(41,208,0);"/>
                </g>
                <g transform="matrix(0.942013,-0.456684,0.626074,1.291419,-204.882633,-70.937276)">
                    <ellipse cx="147.833" cy="364.042" rx="6.653" ry="4.166" style="fill:rgb(41,208,0);"/>
                </g>
                <g transform="matrix(0.942013,-0.456684,0.626074,1.291419,-195.201414,-70.937276)">
                    <ellipse cx="147.833" cy="364.042" rx="6.653" ry="4.166" style="fill:rgb(41,208,0);"/>
                </g>
                <g transform="matrix(0.831985,-0.635412,0.871095,1.140581,-258.149895,6.769847)">
                    <ellipse cx="147.833" cy="364.042" rx="6.653" ry="4.166" style="fill:rgb(41,208,0);"/>
                </g>
                <g transform="matrix(0.59067,-0.864324,1.184914,0.809759,-330.100218,152.131111)">
                    <ellipse cx="147.833" cy="364.042" rx="6.653" ry="4.166" style="fill:rgb(41,208,0);"/>
                </g>
                <g transform="matrix(1,0,0,1,-6.322815,-100.733264)">
                    <circle cx="164.737" cy="393.499" r="4.858" style="fill:white;stroke:black;stroke-width:0.69px;"/>
                </g>
                <g transform="matrix(0.5,0,0,0.5,76.474801,96.01599)">
                    <circle cx="164.737" cy="393.499" r="4.858" style="stroke:black;stroke-width:1.38px;"/>
                </g>
                <g transform="matrix(1,0,0,1,3.392813,-99.733264)">
                    <circle cx="164.737" cy="393.499" r="4.858" style="fill:white;stroke:black;stroke-width:0.69px;"/>
                </g>
                <g transform="matrix(0.5,0,0,0.5,85.332615,97.01599)">
                    <circle cx="164.737" cy="393.499" r="4.858" style="stroke:black;stroke-width:1.38px;"/>
                </g>
            </g>
            <g transform="matrix(0.325668,-0.444841,0.444841,0.325668,141.403055,220.463585)">
                <path d="M139.81,428.639C139.81,428.639 151.908,449.062 151.908,457.814C151.908,464.491 146.487,469.911 139.81,469.911C133.134,469.911 127.713,464.491 127.713,457.814C127.713,449.062 139.81,428.639 139.81,428.639Z" style="fill:rgb(0,139,54);"/>
            </g>
            <g transform="matrix(1.07796,0,0,1.07796,132.384858,70.062465)">
                <circle cx="242.867" cy="216.743" r="1.943" style="fill:white;"/>
            </g>
            <g transform="matrix(1.172707,0,0,1.148034,153.118878,104.713443)">
                <path d="M144.064,160.343C146.913,160.343 149.226,162.656 149.226,165.505C149.226,168.353 146.913,170.666 144.064,170.666C141.215,170.666 138.903,168.353 138.903,165.505C138.903,162.656 141.215,160.343 144.064,160.343ZM144.064,163.507C145.167,163.507 146.062,164.402 146.062,165.505C146.062,166.607 145.167,167.502 144.064,167.502C142.962,167.502 142.067,166.607 142.067,165.505C142.067,164.402 142.962,163.507 144.064,163.507Z" style="stroke:white;stroke-width:0.89px;"/>
            </g>
        </g>
    </g>
</svg>
